<svg xmlns="http://www.w3.org/2000/svg" xmlns:xlink="http://www.w3.org/1999/xlink" width="500" zoomAndPan="magnify" viewBox="0 0 375 374.999991" height="500" preserveAspectRatio="xMidYMid meet" version="1.0"><defs><g/></defs><g fill="#0097b2" fill-opacity="1"><g transform="translate(37.489992, 160.304045)"><g><path d="M 141.265625 -22.1875 C 143.222656 -20.976562 144.769531 -19.390625 145.90625 -17.421875 C 147.039062 -15.460938 147.609375 -13.425781 147.609375 -11.3125 C 147.609375 -8.601562 146.703125 -6.113281 144.890625 -3.84375 C 142.628906 -1.132812 139.15625 0.21875 134.46875 0.21875 C 130.851562 0.21875 127.535156 -0.609375 124.515625 -2.265625 C 113.648438 -8.453125 108.21875 -21.054688 108.21875 -40.078125 C 108.21875 -45.503906 106.441406 -49.800781 102.890625 -52.96875 C 99.347656 -56.144531 94.253906 -57.734375 87.609375 -57.734375 L 45.28125 -57.734375 L 45.28125 -13.8125 C 45.28125 -9.738281 44.1875 -6.414062 42 -3.84375 C 39.8125 -1.28125 36.90625 0 33.28125 0 C 28.90625 0 25.09375 -1.316406 21.84375 -3.953125 C 18.601562 -6.597656 16.984375 -9.882812 16.984375 -13.8125 L 16.984375 -144.65625 C 16.984375 -148.582031 18.300781 -151.863281 20.9375 -154.5 C 23.582031 -157.144531 26.867188 -158.46875 30.796875 -158.46875 L 95.984375 -158.46875 C 103.835938 -158.46875 111.234375 -156.351562 118.171875 -152.125 C 125.117188 -147.90625 130.664062 -142.097656 134.8125 -134.703125 C 138.96875 -127.304688 141.046875 -119.003906 141.046875 -109.796875 C 141.046875 -102.253906 139.003906 -94.894531 134.921875 -87.71875 C 130.847656 -80.550781 125.566406 -74.859375 119.078125 -70.640625 C 128.585938 -63.992188 133.796875 -55.085938 134.703125 -43.921875 C 135.148438 -41.503906 135.375 -39.164062 135.375 -36.90625 C 135.976562 -32.226562 136.582031 -28.867188 137.1875 -26.828125 C 137.789062 -24.785156 139.148438 -23.238281 141.265625 -22.1875 Z M 94.859375 -81.046875 C 97.578125 -81.046875 100.21875 -82.328125 102.78125 -84.890625 C 105.34375 -87.460938 107.453125 -90.898438 109.109375 -95.203125 C 110.773438 -99.503906 111.609375 -104.144531 111.609375 -109.125 C 111.609375 -113.34375 110.773438 -117.222656 109.109375 -120.765625 C 107.453125 -124.316406 105.34375 -127.148438 102.78125 -129.265625 C 100.21875 -131.378906 97.578125 -132.4375 94.859375 -132.4375 L 45.28125 -132.4375 L 45.28125 -81.046875 Z M 94.859375 -81.046875 "/></g></g></g><g fill="#0097b2" fill-opacity="1"><g transform="translate(193.017939, 160.304045)"><g><path d="M 141.265625 -17.65625 C 142.023438 -15.695312 142.40625 -13.882812 142.40625 -12.21875 C 142.40625 -8.300781 141.117188 -5.097656 138.546875 -2.609375 C 135.984375 -0.117188 133.039062 1.125 129.71875 1.125 C 127 1.125 124.546875 0.296875 122.359375 -1.359375 C 120.171875 -3.015625 118.472656 -5.28125 117.265625 -8.15625 L 105.5 -35.546875 L 38.03125 -35.546875 L 26.265625 -7.921875 C 25.203125 -5.054688 23.578125 -2.832031 21.390625 -1.25 C 19.203125 0.332031 16.828125 1.125 14.265625 1.125 C 10.335938 1.125 7.351562 0.0703125 5.3125 -2.03125 C 3.28125 -4.144531 2.265625 -7.015625 2.265625 -10.640625 C 2.265625 -11.992188 2.488281 -13.425781 2.9375 -14.9375 L 59.3125 -150.328125 C 60.519531 -153.335938 62.332031 -155.671875 64.75 -157.328125 C 67.164062 -158.992188 69.878906 -159.675781 72.890625 -159.375 C 75.609375 -159.375 78.132812 -158.582031 80.46875 -157 C 82.8125 -155.414062 84.515625 -153.191406 85.578125 -150.328125 Z M 49.125 -61.578125 L 94.40625 -61.578125 L 71.546875 -114.546875 Z M 49.125 -61.578125 "/></g></g></g><g fill="#0097b2" fill-opacity="1"><g transform="translate(52.677491, 370.304031)"><g><path d="M 53.875 2.265625 C 45.28125 2.265625 37.285156 0.492188 29.890625 -3.046875 C 22.492188 -6.597656 16.453125 -11.546875 11.765625 -17.890625 C 9.960938 -20.597656 9.0625 -23.238281 9.0625 -25.8125 C 9.0625 -29.425781 10.492188 -32.554688 13.359375 -35.203125 C 16.222656 -37.847656 19.164062 -39.171875 22.1875 -39.171875 C 26.113281 -39.171875 30.335938 -36.90625 34.859375 -32.375 C 37.734375 -29.65625 40.675781 -27.726562 43.6875 -26.59375 C 46.707031 -25.46875 50.101562 -24.90625 53.875 -24.90625 C 58.257812 -24.90625 62.445312 -26.035156 66.4375 -28.296875 C 70.4375 -30.554688 73.644531 -33.609375 76.0625 -37.453125 C 78.476562 -41.304688 79.6875 -45.347656 79.6875 -49.578125 L 79.6875 -144.65625 C 79.6875 -148.582031 81.117188 -151.863281 83.984375 -154.5 C 86.859375 -157.144531 90.179688 -158.46875 93.953125 -158.46875 C 98.179688 -158.46875 101.578125 -157.1875 104.140625 -154.625 C 106.703125 -152.0625 107.984375 -148.738281 107.984375 -144.65625 L 107.984375 -49.578125 C 107.984375 -40.523438 105.566406 -32 100.734375 -24 C 95.910156 -16 89.347656 -9.617188 81.046875 -4.859375 C 72.742188 -0.109375 63.6875 2.265625 53.875 2.265625 Z M 53.875 2.265625 "/></g></g></g><g fill="#0097b2" fill-opacity="1"><g transform="translate(177.643177, 370.304031)"><g><path d="M 141.265625 -17.65625 C 142.023438 -15.695312 142.40625 -13.882812 142.40625 -12.21875 C 142.40625 -8.300781 141.117188 -5.097656 138.546875 -2.609375 C 135.984375 -0.117188 133.039062 1.125 129.71875 1.125 C 127 1.125 124.546875 0.296875 122.359375 -1.359375 C 120.171875 -3.015625 118.472656 -5.28125 117.265625 -8.15625 L 105.5 -35.546875 L 38.03125 -35.546875 L 26.265625 -7.921875 C 25.203125 -5.054688 23.578125 -2.832031 21.390625 -1.25 C 19.203125 0.332031 16.828125 1.125 14.265625 1.125 C 10.335938 1.125 7.351562 0.0703125 5.3125 -2.03125 C 3.28125 -4.144531 2.265625 -7.015625 2.265625 -10.640625 C 2.265625 -11.992188 2.488281 -13.425781 2.9375 -14.9375 L 59.3125 -150.328125 C 60.519531 -153.335938 62.332031 -155.671875 64.75 -157.328125 C 67.164062 -158.992188 69.878906 -159.675781 72.890625 -159.375 C 75.609375 -159.375 78.132812 -158.582031 80.46875 -157 C 82.8125 -155.414062 84.515625 -153.191406 85.578125 -150.328125 Z M 49.125 -61.578125 L 94.40625 -61.578125 L 71.546875 -114.546875 Z M 49.125 -61.578125 "/></g></g></g></svg>